<?xml version="1.0" encoding="UTF-8" standalone="no"?>
<!DOCTYPE svg PUBLIC "-//W3C//DTD SVG 1.1//EN" "http://www.w3.org/Graphics/SVG/1.1/DTD/svg11.dtd">
<svg width="100%" height="100%" viewBox="0 0 1458 336" version="1.1" xmlns="http://www.w3.org/2000/svg" xmlns:xlink="http://www.w3.org/1999/xlink" xml:space="preserve" xmlns:serif="http://www.serif.com/" style="fill-rule:evenodd;clip-rule:evenodd;stroke-linejoin:round;stroke-miterlimit:2;">
    <g transform="matrix(1,0,0,1,-239.289,-405.588)">
        <g id="Layer-1" serif:id="Layer 1">
            <g transform="matrix(1,0,0,1,699.252,561.067)">
                <path d="M0,25.427L27.976,25.427C65.502,25.427 84.159,8.267 83.929,-26.09C83.749,-53.727 58.443,-76.344 28.056,-76.344L-116.625,-76.344L-116.625,-52.954L-114.526,-50.899L28.156,-50.899C43.335,-50.899 55.793,-39.822 55.953,-26.018C56.153,-8.685 46.834,-0.018 27.976,-0.018L-69.951,-0.018L41.965,101.771L83.939,101.771L0,25.427Z" style="fill:rgb(45,129,193);fill-rule:nonzero;"/>
            </g>
            <g transform="matrix(1,0,0,1,1055.58,484.715)">
                <path d="M0,177.773L161.464,0L124.496,0L-1.406,140.883L-1.406,0L-29.385,0L-29.385,177.773L0,177.773Z" style="fill:rgb(45,129,193);fill-rule:nonzero;"/>
            </g>
            <g transform="matrix(1,0,0,1,1338.18,484.715)">
                <path d="M0,177.773L161.464,0L124.496,0L-1.406,140.883L-1.406,0L-29.385,0L-29.385,177.773L0,177.773Z" style="fill:rgb(45,129,193);fill-rule:nonzero;"/>
            </g>
            <g transform="matrix(1,0,0,1,0,1.856)">
                <rect x="1250.02" y="482.859" width="27.978" height="178.126" style="fill:rgb(45,129,193);"/>
            </g>
            <g transform="matrix(1,0,0,1,610.603,662.839)">
                <path d="M0,-178.115L0,0L-27.977,0L-27.977,-178.115L0,-178.115Z" style="fill:rgb(45,129,193);fill-rule:nonzero;"/>
            </g>
            <g transform="matrix(1,0,0,1,1511.13,484.715)">
                <path d="M0,178.126L0,152.679L165.851,152.679L185.849,178.126L0,178.126ZM0,76.34L165.851,76.34L165.851,101.787L0,101.787L0,76.34ZM0,0L185.849,0L165.851,25.446L0,25.446L0,0Z" style="fill:rgb(45,129,193);fill-rule:nonzero;"/>
            </g>
            <g transform="matrix(1,0,0,1,811.768,484.715)">
                <path d="M0,178.126L0,152.679L165.852,152.679L185.849,178.126L0,178.126ZM0,76.34L165.852,76.34L165.852,101.787L0,101.787L0,76.34ZM0,0L185.849,0L165.852,25.446L0,25.446L0,0Z" style="fill:rgb(45,129,193);fill-rule:nonzero;"/>
            </g>
            <g transform="matrix(1,0,0,1,1266.02,442.127)">
                <path d="M0,29.107L-4.025,29.107C-11.751,29.107 -18.014,23.411 -18.014,16.384L-18.014,12.723C-18.014,5.696 -11.751,0 -4.025,0L0,0C7.726,0 13.989,5.696 13.989,12.723L13.989,16.384C13.989,23.411 7.726,29.107 0,29.107" style="fill:rgb(45,129,193);fill-rule:nonzero;"/>
            </g>
            <g transform="matrix(1,0,0,1,530.149,603.722)">
                <path d="M0,-114.17L-9.637,-119.734L-42.676,-100.657L-34.789,-134.256L-51.834,-144.096L-65.065,-87.73L-69.956,-84.906L-136.009,-123.042L-136.009,-126.827L-92.581,-167.622L-109.626,-177.463L-136.009,-152.679L-136.009,-192.694L-145.43,-198.134L-154.851,-192.695L-154.851,-152.679L-181.234,-177.463L-198.279,-167.622L-154.851,-126.827L-154.851,-123.042L-220.91,-84.903L-225.793,-87.723L-239.026,-144.096L-256.071,-134.256L-248.183,-100.652L-281.224,-119.733L-290.86,-114.17L-290.86,-103.54L-255.606,-83.185L-290.86,-72.547L-290.86,-52.866L-233.218,-70.258L-231.64,-69.348L-231.64,-69.859L-136.151,-69.859C-136.103,-69.859 -136.056,-69.856 -136.009,-69.855C-126.677,-69.822 -118.018,-66.559 -111.119,-61.139C-106.083,-57.181 -101.992,-52.074 -99.267,-46.224C-96.916,-41.176 -95.575,-35.583 -95.54,-29.699C-95.503,-23.671 -96.129,-18.306 -97.415,-13.602C-99.265,-6.839 -102.485,-1.448 -107.069,2.579C-113.783,8.477 -123.429,11.442 -136.009,11.475C-136.077,11.475 -136.144,11.478 -136.213,11.478L-152.245,11.478L-119.646,37.277L-108.555,46.054L-70.163,23.888L-65.833,26.388L-52.318,83.964L-35.274,74.123L-43.444,39.315L-9.215,59.078L0,53.758L0,42.642L-32.038,24.145L0,14.478L0,-5.203L-54.426,11.219L-60.635,7.634L-60.635,-68.53L-57.641,-70.258L0,-52.866L0,-72.547L-35.254,-83.185L0,-103.54L0,-114.17Z" style="fill:rgb(45,129,193);fill-rule:nonzero;"/>
            </g>
            <g transform="matrix(1,0,0,1,394.141,630.017)">
                <path d="M0,35.609L10.686,29.44L-71.377,-35.154L-0.204,-35.154C-0.134,-35.154 -0.07,-35.16 0,-35.16C2.798,-35.175 5.292,-35.494 7.507,-36.091C14.584,-38.001 18.689,-42.879 19.809,-50.742C20.038,-52.351 20.153,-54.074 20.132,-55.932C20.109,-58.158 19.706,-60.289 19.012,-62.282C16.705,-68.908 11.023,-73.953 4.039,-75.395C2.733,-75.665 1.382,-75.809 0,-75.814C-0.024,-75.814 -0.047,-75.818 -0.071,-75.818L-94.216,-75.818L-94.216,-18.664L-100.428,-15.077L-154.852,-31.498L-154.852,-11.817L-122.815,-2.151L-154.852,16.346L-154.852,27.463L-145.637,32.783L-111.407,13.02L-119.578,47.828L-102.533,57.669L-89.018,0.093L-84.689,-2.407L-18.843,35.609L-18.843,42.463L-60.725,81.807L-43.681,91.648L-18.843,68.315L-18.843,105.988L-9.422,111.427L0,105.987L0,68.315L24.838,91.647L41.882,81.807L0,42.463L0,35.609Z" style="fill:rgb(45,129,193);fill-rule:nonzero;"/>
            </g>
        </g>
    </g>
</svg>
